<?xml version="1.0" encoding="utf-8"?><svg viewBox="0 0 218 53" xmlns="http://www.w3.org/2000/svg" xmlns:xlink="http://www.w3.org/1999/xlink"><style>:root>svg{display:none}:root>svg:target{display:block}</style><svg fill="none" viewBox="0 0 218 53" id="logo" xmlns="http://www.w3.org/2000/svg"><path d="M45.425 44.712c-5.04 5.04-11.208 7.56-18.504 7.56-7.296 0-13.488-2.52-18.576-7.56-5.04-5.088-7.56-11.28-7.56-18.576 0-7.296 2.52-13.464 7.56-18.504C13.433 2.544 19.625 0 26.92 0c7.296 0 13.464 2.544 18.504 7.632 5.088 5.04 7.632 11.208 7.632 18.504 0 7.296-2.544 13.488-7.632 18.576zm-31.248-5.616c3.456 3.408 7.704 5.112 12.744 5.112s9.264-1.704 12.672-5.112c3.456-3.456 5.184-7.776 5.184-12.96 0-5.184-1.728-9.48-5.184-12.888-3.408-3.456-7.632-5.184-12.672-5.184-5.04 0-9.288 1.728-12.744 5.184-3.408 3.408-5.112 7.704-5.112 12.888s1.704 9.504 5.112 12.96zM81.152 52.272c-7.824 0-13.224-3.072-16.2-9.216l7.128-4.176c1.632 3.552 4.68 5.328 9.144 5.328 2.88 0 5.088-.696 6.624-2.088 1.584-1.44 2.376-3.456 2.376-6.048V.936h8.28v35.136c0 5.184-1.632 9.192-4.896 12.024-3.264 2.784-7.416 4.176-12.456 4.176zM129.71 52.272c-7.824 0-13.224-3.072-16.2-9.216l7.128-4.176c1.632 3.552 4.68 5.328 9.144 5.328 2.88 0 5.088-.696 6.624-2.088 1.584-1.44 2.376-3.456 2.376-6.048V.936h8.28v35.136c0 5.184-1.632 9.192-4.896 12.024-3.264 2.784-7.416 4.176-12.456 4.176zM209.59 44.712c-5.04 5.04-11.208 7.56-18.504 7.56-7.296 0-13.488-2.52-18.576-7.56-5.04-5.088-7.56-11.28-7.56-18.576 0-7.296 2.52-13.464 7.56-18.504C177.598 2.544 183.79 0 191.086 0c7.296 0 13.464 2.544 18.504 7.632 5.088 5.04 7.632 11.208 7.632 18.504 0 7.296-2.544 13.488-7.632 18.576zm-31.248-5.616c3.456 3.408 7.704 5.112 12.744 5.112s9.264-1.704 12.672-5.112c3.456-3.456 5.184-7.776 5.184-12.96 0-5.184-1.728-9.48-5.184-12.888-3.408-3.456-7.632-5.184-12.672-5.184-5.04 0-9.288 1.728-12.744 5.184-3.408 3.408-5.112 7.704-5.112 12.888s1.704 9.504 5.112 12.96z" fill="#fff"/><path d="M36.989 24.058l-.006-.052a.714.714 0 00-.06-.188l-2.947-5.299S33.602 18 33.511 18H20.952l-3.777 5.638-.044.052-.006.024a.966.966 0 00-.078.182l-.016.05a.91.91 0 00.006.494l.018.057a.915.915 0 00.087.183l9.132 12.917.018.03a.835.835 0 00.174.182l.053.037a.898.898 0 00.186.097l.052.02c.089.025.166.037.242.037a.875.875 0 00.253-.04l.062-.025a.87.87 0 00.18-.099l.041-.028a.765.765 0 00.158-.163l9.143-12.932a.966.966 0 00.153-.41l.007-.067.004-.053-.011-.125zm-4.903-.344l1.302-2.63 1.3 2.63h-2.602zm-.78 1.559h3.087l-5.146 7.28 2.059-7.28zm-.764-2.347l-1.88-2.848h3.289l-1.41 2.848zm-6.021 2.347h4.958l-2.48 8.767-2.478-8.767zm.492-1.559l1.986-3.01 1.987 3.01h-3.973zm-1.4-1.024l-.861-2.612h2.585l-1.724 2.612zm1.14 9.864l-5.147-7.281h3.088l2.059 7.28zm-3.491-11.452l.862 2.612h-2.586l1.724-2.612zM200.989 24.058l-.006-.052a.713.713 0 00-.059-.188l-2.947-5.299s-.376-.519-.466-.519h-12.559l-3.777 5.638-.044.052-.006.024a.965.965 0 00-.078.182l-.016.05a.919.919 0 00.006.494l.018.057a.954.954 0 00.087.183l9.132 12.917.018.03a.829.829 0 00.174.182l.053.037a.902.902 0 00.186.097l.051.02c.09.025.167.037.243.037a.876.876 0 00.253-.04l.062-.025a.864.864 0 00.18-.099l.041-.028a.77.77 0 00.158-.163l9.143-12.932a.965.965 0 00.153-.41l.007-.067.004-.053-.011-.125zm-4.903-.344l1.302-2.63 1.3 2.63h-2.602zm-.78 1.559h3.087l-5.146 7.28 2.059-7.28zm-.764-2.347l-1.88-2.848h3.289l-1.409 2.848zm-6.021 2.347h4.958l-2.48 8.767-2.478-8.767zm.492-1.559l1.986-3.01 1.987 3.01h-3.973zm-1.4-1.024l-.861-2.612h2.585l-1.724 2.612zm1.14 9.864l-5.147-7.281h3.088l2.059 7.28zm-3.491-11.452l.862 2.612h-2.586l1.724-2.612z" fill="#fff"/></svg><svg fill="none" viewBox="0 0 19 19" id="search__icon" xmlns="http://www.w3.org/2000/svg"><path d="M19 17l-5.154-5.154a7 7 0 10-2 2L17 19l2-2zM3 8c0-2.757 2.243-5 5-5s5 2.243 5 5-2.243 5-5 5-5-2.243-5-5z" fill="#fff"/></svg></svg>